<svg width="41" height="48" viewBox="0 0 41 48" fill="none" xmlns="http://www.w3.org/2000/svg">
<g clip-path="url(#clip0)">
<path d="M39.9096 37.4066C39.1822 39.0835 38.3211 40.6272 37.3235 42.0464C35.9636 43.9812 34.8502 45.3204 33.9921 46.0641C32.6619 47.2848 31.2367 47.9099 29.7106 47.9455C28.615 47.9455 27.2937 47.6344 25.7557 47.0033C24.2126 46.3752 22.7945 46.0641 21.4979 46.0641C20.138 46.0641 18.6796 46.3752 17.1196 47.0033C15.5572 47.6344 14.2986 47.9633 13.3363 47.9959C11.8728 48.0581 10.414 47.4151 8.95795 46.0641C8.02861 45.2552 6.86618 43.8686 5.47365 41.9042C3.97957 39.8065 2.75123 37.374 1.78893 34.6007C0.758332 31.6053 0.241699 28.7046 0.241699 25.8964C0.241699 22.6796 0.938263 19.9052 2.33347 17.5802C3.42998 15.7127 4.88872 14.2396 6.71446 13.1581C8.54019 12.0767 10.5129 11.5256 12.6373 11.4903C13.7998 11.4903 15.3241 11.8491 17.2184 12.5543C19.1074 13.2618 20.3203 13.6206 20.8521 13.6206C21.2497 13.6206 22.5971 13.2011 24.8812 12.3647C27.0413 11.589 28.8644 11.2678 30.3578 11.3943C34.4048 11.7202 37.4452 13.3122 39.4672 16.1803C35.8478 18.3686 34.0574 21.4337 34.093 25.3657C34.1257 28.4285 35.2391 30.9771 37.4274 33.0008C38.4191 33.94 39.5266 34.6659 40.7588 35.1814C40.4916 35.9548 40.2095 36.6955 39.9096 37.4066ZM30.628 0.960273C30.628 3.36082 29.7492 5.6022 27.9974 7.67681C25.8833 10.1431 23.3263 11.5682 20.5534 11.3434C20.5181 11.0554 20.4976 10.7523 20.4976 10.4338C20.4976 8.12924 21.5029 5.66294 23.2883 3.64641C24.1796 2.62541 25.3133 1.77646 26.688 1.09923C28.0597 0.43211 29.3572 0.0631781 30.5776 0C30.6132 0.320916 30.628 0.641851 30.628 0.960242V0.960273Z" fill="white"/>
</g>
<defs>
<clipPath id="clip0">
<rect width="40.5171" height="48" fill="white" transform="translate(0.241699)"/>
</clipPath>
</defs>
</svg>
