<svg width="168" height="36" viewBox="0 0 168 36" fill="none" xmlns="http://www.w3.org/2000/svg">
<path fill-rule="evenodd" clip-rule="evenodd" d="M29.1305 28.6722C28.8593 28.4041 28.6224 28.1191 28.4198 27.8171C28.412 27.8056 28.4044 27.794 28.3967 27.7825C28.1914 27.4712 28.0222 27.1421 27.8892 26.7952C27.5643 25.8581 27.4018 24.8224 27.4018 23.688V5.37754C27.4018 4.90899 27.5018 4.57607 27.7017 4.37879C27.9267 4.15684 28.2766 4.04587 28.7515 4.04587H34.6379C35.1128 4.04587 35.4503 4.15684 35.6502 4.37879C35.8752 4.57607 35.9877 4.90899 35.9877 5.37754V22.2454C35.9877 22.7386 36.1751 23.1578 36.5501 23.503C36.925 23.8236 37.7623 23.9839 39.0621 23.9839C40.3869 23.9839 41.2367 23.8236 41.6116 23.503C41.9866 23.1578 42.174 22.7386 42.174 22.2454V5.37754C42.174 4.90899 42.274 4.57607 42.474 4.37879C42.6989 4.15684 43.0489 4.04587 43.5238 4.04587H49.2227C49.6976 4.04587 50.035 4.15684 50.235 4.37879C50.46 4.57607 50.5724 4.90899 50.5724 5.37754V23.688C50.5724 24.8224 50.3975 25.8581 50.0475 26.7952C49.7226 27.7077 49.1227 28.4968 48.2479 29.1626C48.1956 29.2021 48.1421 29.241 48.0874 29.2794C47.2523 29.8655 46.131 30.3321 44.7235 30.6793C43.2238 31.0492 41.3117 31.2341 38.9871 31.2341C36.6626 31.2341 34.7504 31.0492 33.2507 30.6793C31.751 30.3094 30.5637 29.8038 29.6889 29.1626C29.4889 29.006 29.3028 28.8425 29.1305 28.6722ZM26.7142 31.9808C26.5935 32.0877 26.47 32.1921 26.3439 32.294L26.3385 32.2983L26.333 32.3027C24.9298 33.4276 23.2181 34.1339 21.4539 34.5919C19.5656 35.0822 17.3706 35.28 14.9738 35.28C12.5972 35.28 10.4163 35.0814 8.53114 34.5919L8.52244 34.5897L8.51374 34.5874C6.76765 34.1259 5.09424 33.4244 3.70003 32.3406L3.64599 32.2986L3.59341 32.2549C2.27362 31.1562 1.2657 29.7761 0.681774 28.1364L0.660023 28.0753L0.640264 28.0136C0.196429 26.6269 0 25.1733 0 23.688V17.6955C0 16.8409 0.150178 15.1686 1.50104 13.8359L4.40074 16.6967C4.20077 16.894 4.10079 17.2269 4.10079 17.6955V23.688C4.10079 24.8224 4.25076 25.8581 4.55071 26.7952C4.87565 27.7077 5.43804 28.4968 6.23789 29.1626C7.06274 29.8038 8.17503 30.3094 9.57477 30.6793C10.9995 31.0492 12.7992 31.2341 14.9738 31.2341C17.1733 31.2341 18.9855 31.0492 20.4102 30.6793C21.835 30.3094 22.9473 29.8038 23.7471 29.1626C23.928 29.0167 24.0968 28.8648 24.2536 28.7069C24.5037 28.4552 24.7232 28.1884 24.9121 27.9066C24.9424 27.8615 24.9718 27.8161 25.0004 27.7703C25.1927 27.4626 25.3499 27.1376 25.4718 26.7952C25.7967 25.8581 25.9592 24.8224 25.9592 23.688V5.37754C25.9592 4.90899 25.8467 4.57607 25.6218 4.37879C25.4218 4.15684 25.0844 4.04587 24.6094 4.04587H18.7231C18.2481 4.04587 17.8982 4.15684 17.6732 4.37879C17.4733 4.57607 17.3733 4.90899 17.3733 5.37754V22.2084C17.3733 22.7016 17.2233 23.1208 16.9234 23.4661C16.6484 23.7866 15.9736 23.9469 14.8988 23.9469C13.749 23.9469 13.0116 23.7866 12.6867 23.4661C12.3867 23.1208 12.2368 22.7016 12.2368 22.2084V17.6955C12.2368 17.2269 12.1243 16.894 11.8993 16.6967C11.6994 16.4748 11.3619 16.3638 10.887 16.3638H5.45054C4.97563 16.3638 4.62569 16.4748 4.40074 16.6967L1.50104 13.8359C2.80286 12.5515 4.41868 12.3179 5.45054 12.3179H10.887C11.4825 12.3179 12.3693 12.3964 13.2725 12.7908V5.37754C13.2725 4.52296 13.4227 2.85069 14.7735 1.51793C16.0754 0.233534 17.6912 0 18.7231 0H24.6094C25.1343 0 25.8856 0.0609579 26.675 0.345553C27.4441 0.0702421 28.1856 0 28.7515 0H34.6379C35.577 0 37.2407 0.195119 38.5509 1.51695C38.7468 1.70597 38.9183 1.90244 39.0683 2.10304C39.2148 1.90337 39.3824 1.70722 39.5743 1.51793C40.8761 0.233539 42.4919 0 43.5238 0H49.2227C49.7667 0 50.5538 0.0654715 51.3745 0.377489C52.1744 0.0756247 52.9507 0 53.5379 0H57.4372C58.3056 0 59.311 0.130098 60.3038 0.571133C61.3406 1.02059 62.1395 1.70356 62.7415 2.38726C62.7437 2.3898 62.746 2.39233 62.7482 2.39486L63.2931 3.01005C63.517 2.50436 63.8448 1.98986 64.3231 1.51793C65.625 0.233534 67.2408 0 68.2726 0H73.8966C74.3943 0 75.0955 0.054807 75.8398 0.303115C76.5646 0.062929 77.2576 0 77.7932 0H93.7652C94.2693 0 94.9823 0.0562261 95.7372 0.312796C96.4725 0.064616 97.1768 0 97.7196 0H109.192C111.611 0 114.116 0.289215 116.25 1.24672C117.493 0.199873 118.947 0 119.902 0H137.299C137.781 0 138.455 0.0515215 139.174 0.280962C139.874 0.0590317 140.54 0 141.059 0H153.544C156.649 0 160.089 0.593788 162.344 3.05357C164.23 5.06134 165.031 7.57832 165.031 10.2233V11.9249C165.031 12.8267 164.943 13.7388 164.729 14.6314C164.88 14.7795 165.027 14.9341 165.17 15.0954C166.826 16.9342 167.468 19.2108 167.468 21.5055V29.3476C167.468 30.3656 167.232 31.9598 165.93 33.2442C164.579 34.577 162.884 34.7251 162.018 34.7251H156.206C155.279 34.7251 153.737 34.552 152.432 33.4073L152.252 33.2491L152.091 33.0713C151.86 32.8146 151.668 32.5486 151.509 32.28C151.308 32.6111 151.057 32.9365 150.745 33.2442C149.394 34.577 147.699 34.7251 146.833 34.7251H141.059C140.563 34.7251 139.891 34.6756 139.174 34.4542C138.434 34.6845 137.752 34.7251 137.299 34.7251H119.902C118.975 34.7251 117.433 34.552 116.128 33.4073L115.947 33.2491L115.787 33.0713C114.627 31.7834 114.451 30.2621 114.451 29.3476V26.6426C112.771 27.0987 110.959 27.253 109.192 27.253H108.982V29.3476C108.982 30.3657 108.745 31.9598 107.443 33.2442C106.092 34.577 104.397 34.7251 103.531 34.7251H97.7196C97.2012 34.7251 96.4906 34.671 95.7366 34.4232C94.9596 34.6809 94.2386 34.7251 93.7652 34.7251H77.7932C77.2815 34.7251 76.5825 34.6724 75.8393 34.4326C75.0732 34.682 74.3641 34.7251 73.8966 34.7251H68.2726C67.3457 34.7251 65.8038 34.552 64.4984 33.4073L64.3181 33.2491L64.1579 33.0713C63.9861 32.8807 63.836 32.6849 63.7048 32.4868C63.5289 32.7464 63.3205 33.0008 63.0739 33.2442C61.723 34.577 60.028 34.7251 59.1618 34.7251H53.5379C52.611 34.7251 51.069 34.552 49.7637 33.4073L49.5834 33.2491L49.5129 33.1709C48.3465 33.8194 47.0499 34.2759 45.7181 34.6043C43.7741 35.0838 41.4968 35.28 38.9871 35.28C36.4774 35.28 34.2001 35.0838 32.2561 34.6043C30.4351 34.1552 28.6931 33.4729 27.2435 32.4104L27.1904 32.3716L27.1387 32.331C26.9938 32.2175 26.8523 32.1008 26.7142 31.9808ZM52.6404 30.4912C52.8602 30.6166 53.1593 30.6793 53.5379 30.6793H59.1618C59.6368 30.6793 59.9742 30.5806 60.1742 30.3833C60.3991 30.1614 60.5116 29.8161 60.5116 29.3476V17.1406L66.9229 24.7977V29.3476C66.9229 29.8161 67.0229 30.1614 67.2228 30.3833C67.4478 30.5806 67.7977 30.6793 68.2726 30.6793H73.8966C74.3715 30.6793 74.7089 30.5806 74.9089 30.3833C75.1339 30.1614 75.2463 29.8161 75.2463 29.3476V5.37754C75.2463 4.90899 75.1339 4.57607 74.9089 4.37879C74.7089 4.15684 74.3715 4.04587 73.8966 4.04587H68.2726C67.7977 4.04587 67.4478 4.15684 67.2228 4.37879C67.0229 4.57607 66.9229 4.90899 66.9229 5.37754V13.2566L59.6493 5.04462C59.3243 4.67472 58.9869 4.41578 58.6369 4.26782C58.312 4.11985 57.9121 4.04587 57.4372 4.04587H53.5379C53.063 4.04587 52.7131 4.15684 52.4881 4.37879C52.2881 4.57607 52.1882 4.90899 52.1882 5.37754V29.3476C52.1882 29.8161 52.2881 30.1614 52.4881 30.3833C52.5337 30.4234 52.5845 30.4593 52.6404 30.4912ZM93.7652 30.6793C94.2401 30.6793 94.5776 30.5806 94.7775 30.3833C95.0025 30.1614 95.115 29.8161 95.115 29.3476V24.9457C95.115 24.4771 95.0025 24.1442 94.7775 23.9469C94.5776 23.725 94.2401 23.614 93.7652 23.614H90.1284V11.1851H93.7652C94.2401 11.1851 94.5776 11.0865 94.7775 10.8892C95.0025 10.6672 95.115 10.322 95.115 9.85343V5.37754C95.115 4.90899 95.0025 4.57607 94.7775 4.37879C94.5776 4.15684 94.2401 4.04587 93.7652 4.04587H77.7932C77.3183 4.04587 76.9684 4.15684 76.7434 4.37879C76.5434 4.57607 76.4435 4.90899 76.4435 5.37754V9.85343C76.4435 10.322 76.5434 10.6672 76.7434 10.8892C76.9684 11.0865 77.3183 11.1851 77.7932 11.1851H81.505V23.614H77.7932C77.3183 23.614 76.9684 23.725 76.7434 23.9469C76.5434 24.1442 76.4435 24.4771 76.4435 24.9457V29.3476C76.4435 29.8161 76.5434 30.1614 76.7434 30.3833C76.9684 30.5806 77.3183 30.6793 77.7932 30.6793H93.7652ZM97.7196 4.04587C97.2446 4.04587 96.8947 4.15684 96.6697 4.37879C96.4698 4.57607 96.3698 4.90899 96.3698 5.37754V29.3476C96.3698 29.8161 96.4698 30.1614 96.6697 30.3833C96.8947 30.5806 97.2446 30.6793 97.7196 30.6793H103.531C104.006 30.6793 104.343 30.5806 104.543 30.3833C104.768 30.1614 104.881 29.8161 104.881 29.3476V23.2071H109.192C111.398 23.2071 113.151 22.9269 114.451 22.3664C115.156 22.0629 115.727 21.6774 116.166 21.2096C117.416 19.8779 118.041 18.1394 118.041 15.9939V11.2591C118.041 9.11361 117.416 7.37505 116.166 6.04338C115.937 5.79901 115.671 5.57707 115.37 5.37754C115.098 5.19822 114.798 5.03701 114.468 4.89391C113.166 4.32855 111.407 4.04587 109.192 4.04587H97.7196ZM109.605 15.9939C109.83 15.624 109.942 15.2048 109.942 14.7362V12.7757C109.942 12.3072 109.83 11.8879 109.605 11.518C109.467 11.2906 109.234 11.1331 108.907 11.0455C108.701 10.9906 108.459 10.9632 108.18 10.9632H104.806V16.5488H108.18C108.459 16.5488 108.701 16.5213 108.907 16.4664C109.234 16.3788 109.467 16.2213 109.605 15.9939ZM118.552 29.3476C118.552 29.8161 118.652 30.1614 118.852 30.3833C119.077 30.5806 119.427 30.6793 119.902 30.6793H137.299C137.774 30.6793 138.111 30.5806 138.311 30.3833C138.536 30.1614 138.648 29.8161 138.648 29.3476V25.0197C138.648 24.5511 138.536 24.2182 138.311 24.0209C138.126 23.8161 137.825 23.7058 137.406 23.69C137.371 23.6887 137.335 23.688 137.299 23.688H126.951V20.5068H134.262C134.737 20.5068 135.074 20.4081 135.274 20.2109C135.416 20.0706 135.514 19.881 135.566 19.6421C135.589 19.5383 135.603 19.4252 135.609 19.3027C135.61 19.2613 135.611 19.2187 135.611 19.1751V15.2171C135.611 15.1735 135.61 15.1311 135.609 15.0898C135.608 15.0875 135.608 15.0853 135.608 15.083C135.588 14.6845 135.477 14.3963 135.274 14.2183C135.074 13.9964 134.737 13.8854 134.262 13.8854H126.951V11.0371H137.299C137.477 11.0371 137.636 11.0232 137.775 10.9954C138.008 10.9492 138.186 10.8644 138.311 10.7412C138.536 10.5193 138.648 10.174 138.648 9.70547V5.37754C138.648 4.90899 138.536 4.57607 138.311 4.37879C138.111 4.15684 137.774 4.04587 137.299 4.04587H119.902C119.874 4.04587 119.846 4.04626 119.819 4.04703C119.386 4.05933 119.064 4.16992 118.852 4.37879C118.652 4.57607 118.552 4.90899 118.552 5.37754V29.3476ZM141.059 4.04587C140.584 4.04587 140.234 4.15684 140.009 4.37879C139.809 4.57607 139.709 4.90899 139.709 5.37754V29.3476C139.709 29.8161 139.809 30.1614 140.009 30.3833C140.234 30.5806 140.584 30.6793 141.059 30.6793H146.833C147.308 30.6793 147.645 30.5806 147.845 30.3833C148.07 30.1614 148.183 29.8161 148.183 29.3476V22.0974H153.432C153.957 22.0974 154.319 22.233 154.519 22.5043C154.744 22.7509 154.857 23.1455 154.857 23.688V29.3476C154.857 29.8161 154.956 30.1614 155.156 30.3833C155.381 30.5806 155.731 30.6793 156.206 30.6793H162.018C162.493 30.6793 162.83 30.5806 163.03 30.3833C163.255 30.1614 163.367 29.8161 163.367 29.3476V21.5055C163.367 20.3116 163.116 19.2997 162.615 18.4698C162.463 18.2199 162.289 17.9864 162.093 17.7695C161.268 16.8324 160.18 16.2898 158.831 16.1419C159.606 15.8213 160.143 15.3034 160.443 14.5883C160.713 13.9731 160.871 13.2556 160.917 12.4359C160.926 12.2698 160.93 12.0994 160.93 11.9249V10.2233C160.93 8.39846 160.393 6.91883 159.318 5.78444C158.268 4.62539 156.344 4.04587 153.544 4.04587H141.059ZM150.995 15.439C151.623 15.439 152.052 15.2894 152.284 14.99C152.292 14.9796 152.299 14.969 152.307 14.9582C152.427 14.7746 152.514 14.5702 152.57 14.3448C152.62 14.1463 152.644 13.9315 152.644 13.7005V12.4428C152.644 11.9496 152.532 11.5427 152.307 11.2221C152.299 11.2105 152.292 11.199 152.284 11.1878C152.052 10.8654 151.623 10.7042 150.995 10.7042H148.183V15.439H150.995Z" fill="white"/>
</svg>
