<svg width="48" height="48" viewBox="0 0 48 48" fill="none" xmlns="http://www.w3.org/2000/svg">
<path fill-rule="evenodd" clip-rule="evenodd" d="M23.5 38C15.4905 38 9 31.5067 9 23.4992C9 15.4917 15.4905 9 23.5 9C31.5079 9 38 15.4917 38 23.4992C38 31.5067 31.5079 38 23.5 38ZM10.3416 23.4994C10.3416 29.0655 13.8051 33.8209 18.6928 35.7358C18.5778 34.6968 18.4753 33.1019 18.7394 31.965C18.977 30.94 20.2801 25.4345 20.2801 25.4345C20.2801 25.4345 19.8871 24.6471 19.8871 23.4838C19.8871 21.6559 20.9448 20.2923 22.265 20.2923C23.3848 20.2923 23.9268 21.1341 23.9268 22.1436C23.9268 23.2711 23.2093 24.9561 22.8381 26.5185C22.529 27.8277 23.495 28.8931 24.7841 28.8931C27.12 28.8931 28.9154 26.43 28.9154 22.8751C28.9154 19.7286 26.6556 17.5295 23.4267 17.5295C19.6883 17.5295 17.4937 20.3343 17.4937 23.2323C17.4937 24.3613 17.9271 25.5727 18.4707 26.2312C18.5778 26.3616 18.5934 26.475 18.5623 26.6086C18.4629 27.0232 18.2408 27.9162 18.1973 28.0979C18.1398 28.3387 18.0063 28.3899 17.7562 28.275C16.1161 27.5109 15.0911 25.1099 15.0911 23.1841C15.0911 19.039 18.1026 15.231 23.773 15.231C28.3315 15.231 31.8742 18.4799 31.8742 22.8207C31.8742 27.3494 29.018 30.9944 25.0559 30.9944C23.7233 30.9944 22.4715 30.3017 22.0429 29.4848C22.0429 29.4848 21.3843 31.993 21.2244 32.608C20.9277 33.7495 20.1263 35.1798 19.592 36.0526C20.8205 36.4347 22.1267 36.6397 23.4826 36.6397C30.7404 36.6397 36.6236 30.7568 36.6236 23.4994C36.6236 16.2404 30.7404 10.3591 23.4826 10.3591C16.2248 10.3591 10.3416 16.2404 10.3416 23.4994Z" fill="#805DE4"/>
</svg>
