<svg width="64" height="49" viewBox="0 0 64 49" fill="none" xmlns="http://www.w3.org/2000/svg">
<g clip-path="url(#clip0)">
<path fill-rule="evenodd" clip-rule="evenodd" d="M5.32621 40.7497C0.474104 39.3624 -0.349796 36.4988 1.86805 34.8488C3.9189 33.319 7.406 32.1767 7.406 32.1767L21.8064 27.0328V32.8937L11.4431 36.619C9.61049 37.2871 9.32992 38.2134 10.8196 38.7011C12.3093 39.1887 15.0015 39.0507 16.8319 38.3915L21.802 36.579V41.823C21.488 41.8809 21.134 41.9365 20.8111 41.99C15.6251 42.8358 10.3114 42.4102 5.32621 40.7497ZM35.7081 41.3598L51.8677 35.5925C53.7025 34.9245 53.9831 34.0026 52.4934 33.5149C51.0037 33.0273 48.3115 33.1653 46.4811 33.8267L35.7125 37.6255V31.571L36.336 31.3594C38.769 30.5723 41.2772 30.0402 43.8202 29.7718C48.1957 29.2885 53.5533 29.8386 57.7574 31.4329C62.4982 32.9338 63.0326 35.1449 61.8279 36.668C60.6233 38.1911 57.6706 39.2756 57.6706 39.2756L35.7125 47.1783L35.7081 41.3598ZM37.5986 3.82334C46.107 6.76044 48.9907 10.4168 48.9907 18.6558C48.9907 26.6832 44.0606 29.7272 37.799 26.6877V11.7172C37.799 9.96252 37.4784 8.34589 35.8395 7.88718C34.5836 7.48191 33.8042 8.65541 33.8042 10.4101V47.8753L23.7571 44.6688V0C28.0302 0.797179 34.254 2.67211 37.5986 3.81444V3.82334ZM59.1981 44.8291C59.2055 44.8879 59.1983 44.9477 59.1774 45.0032C59.1564 45.0587 59.1223 45.1082 59.0779 45.1475C58.9679 45.2155 58.8396 45.2482 58.7105 45.241H57.9378V44.4416H58.7572C58.8488 44.4381 58.9401 44.4548 59.0245 44.4906C59.0838 44.5234 59.132 44.5731 59.1629 44.6334C59.1939 44.6937 59.2061 44.7618 59.1981 44.8291ZM59.7526 46.6506C59.7306 46.6371 59.7118 46.619 59.6975 46.5974C59.6833 46.5759 59.674 46.5514 59.6702 46.5259C59.6539 46.4528 59.6465 46.3781 59.6479 46.3032L59.6324 45.9402C59.6387 45.8078 59.6045 45.6765 59.5344 45.5639C59.4874 45.5083 59.4309 45.4615 59.3674 45.4259C59.4509 45.3716 59.5229 45.3012 59.5789 45.2188C59.6554 45.088 59.6932 44.9382 59.688 44.7868C59.699 44.6427 59.6654 44.4987 59.5917 44.3744C59.518 44.2501 59.4078 44.1515 59.2761 44.092C59.109 44.023 58.9291 43.9903 58.7483 43.9963H57.4546V46.8243H57.9378V45.6641H58.6994C58.8001 45.6585 58.9009 45.6736 58.9955 45.7087C59.0477 45.7385 59.0903 45.7827 59.1184 45.8359C59.1464 45.8892 59.1586 45.9493 59.1536 46.0093L59.1759 46.4546C59.177 46.5293 59.1837 46.6037 59.1959 46.6773C59.2027 46.7144 59.2147 46.7504 59.2315 46.7842L59.2494 46.8176H59.7882V46.6528L59.7526 46.6506ZM56.437 45.4704C56.4351 44.9113 56.6545 44.3742 57.0471 43.9762C57.2386 43.7798 57.4675 43.6236 57.7203 43.517C57.9731 43.4104 58.2446 43.3555 58.519 43.3555C58.7933 43.3555 59.0649 43.4104 59.3177 43.517C59.5705 43.6236 59.7994 43.7798 59.9909 43.9762C60.2812 44.2717 60.4785 44.6458 60.5586 45.0522C60.6386 45.4587 60.5978 45.8797 60.4413 46.2632C60.2847 46.6467 60.0192 46.9759 59.6776 47.2102C59.3359 47.4444 58.9332 47.5735 58.519 47.5814C58.2448 47.5816 57.9733 47.5269 57.7205 47.4206C57.4677 47.3143 57.2387 47.1585 57.0471 46.9623C56.655 46.5649 56.4357 46.0287 56.437 45.4704ZM58.519 48.0089C58.8486 48.0093 59.175 47.9435 59.4787 47.8154C59.7824 47.6872 60.0573 47.4994 60.287 47.2629C60.7565 46.7835 61.0194 46.1392 61.0194 45.4682C61.0194 44.7972 60.7565 44.1528 60.287 43.6734C60.0569 43.4377 59.7819 43.2504 59.4782 43.1227C59.1746 42.995 58.8484 42.9293 58.519 42.9297C58.0211 42.9391 57.537 43.0942 57.1263 43.3758C56.7157 43.6574 56.3966 44.0532 56.2085 44.5143C56.0203 44.9753 55.9715 45.4814 56.0679 45.9699C56.1643 46.4584 56.4018 46.9079 56.7509 47.2629C56.9806 47.4994 57.2555 47.6872 57.5592 47.8154C57.863 47.9435 58.1893 48.0093 58.519 48.0089Z" fill="#805DE4"/>
</g>
<defs>
<clipPath id="clip0">
<rect width="63" height="49" fill="white" transform="translate(0.241699)"/>
</clipPath>
</defs>
</svg>
