<svg width="48" height="48" viewBox="0 0 48 48" fill="none" xmlns="http://www.w3.org/2000/svg">
<path fill-rule="evenodd" clip-rule="evenodd" d="M9.59611 27.7298C11.408 33.6749 16.9405 38 23.4844 38C31.501 38 38 31.508 38 23.5C38 15.4919 31.501 9 23.4844 9C15.7917 9 9.49714 14.9779 9 22.5367C9.00575 22.5463 9.01147 22.5559 9.01718 22.5655C9.01822 22.545 9.01886 22.5344 9.01886 22.5344L16.7788 25.7514C16.9899 25.6116 17.2149 25.4905 17.455 25.3918C17.9997 25.1659 18.5742 25.0648 19.1466 25.091L22.6805 19.9214C22.6793 19.8984 22.6793 19.874 22.6793 19.8495C22.6793 16.7986 25.14 14.3167 28.1646 14.3167C31.1906 14.3167 33.65 16.7986 33.65 19.8495C33.65 22.9002 31.1906 25.3844 28.1646 25.3844C28.1237 25.3844 28.0816 25.3831 28.0407 25.3819L22.9842 29.0207C22.9991 29.5825 22.8962 30.1455 22.6756 30.6823C21.8277 32.7358 19.4775 33.7132 17.4391 32.8556C16.1933 32.3326 15.3489 31.2453 15.0734 30.0057L9.59611 27.7298Z" fill="white"/>
<path fill-rule="evenodd" clip-rule="evenodd" d="M21.8314 30.3252C21.1751 31.9119 19.3645 32.6646 17.7907 32.0042C17.0647 31.6997 16.5165 31.1417 16.2003 30.4763L17.9859 31.2215C19.1466 31.7084 20.4782 31.1541 20.9607 29.9857C21.4446 28.816 20.8956 27.4728 19.7356 26.986L17.8896 26.2157C18.6019 25.9436 19.4116 25.9336 20.1682 26.2507C20.9309 26.5703 21.5227 27.172 21.8364 27.9409C22.15 28.7099 22.1487 29.5588 21.8314 30.3252Z" fill="white"/>
<path fill-rule="evenodd" clip-rule="evenodd" d="M28.1646 23.5368C26.1503 23.5368 24.5102 21.8828 24.5102 19.8495C24.5102 17.8179 26.1503 16.1633 28.1646 16.1633C30.1803 16.1633 31.8203 17.8179 31.8203 19.8495C31.8203 21.8828 30.1803 23.5368 28.1646 23.5368ZM25.4263 19.8439C25.4263 21.3736 26.656 22.6131 28.1708 22.6131C29.6869 22.6131 30.9166 21.3736 30.9166 19.8439C30.9166 18.3143 29.6869 17.0737 28.1708 17.0737C26.656 17.0737 25.4263 18.3143 25.4263 19.8439Z" fill="white"/>
</svg>
