<svg width="49" height="48" viewBox="0 0 49 48" fill="none" xmlns="http://www.w3.org/2000/svg">
<g clip-path="url(#clip0)">
<path d="M11.5184 0.156067C6.84524 0.991604 3.08533 4.45033 1.90003 8.9972C1.47255 10.6391 1.4434 11.601 1.49198 24.338C1.52112 36.0355 1.53084 36.3075 1.72515 37.2111C2.80357 42.0786 6.26231 45.547 11.1784 46.6934C11.8196 46.8392 12.6357 46.8683 17.8918 46.8975C23.3325 46.9363 23.896 46.9266 24.0417 46.7809C24.1875 46.6351 24.1972 44.76 24.1972 23.5025C24.1972 7.7439 24.168 0.321232 24.1 0.185215C24.0029 0.010334 23.8377 0.000621796 18.1444 0.010334C13.5198 0.02005 12.1305 0.0491982 11.5184 0.156067ZM20.311 23.4733V43.157L16.3567 43.1084C12.7134 43.0695 12.3248 43.0501 11.5961 42.8655C8.46773 42.0591 6.14572 39.6497 5.49478 36.5116C5.28104 35.5303 5.28104 11.3581 5.48506 10.3962C6.06799 7.66617 7.96252 5.40245 10.5177 4.38232C11.8002 3.8674 12.3928 3.8091 16.5511 3.79939L20.311 3.78967V23.4733Z" fill="#805DE4"/>
<path d="M12.3541 9.72554C11.742 9.84212 10.8093 10.3085 10.3138 10.7457C9.29368 11.6298 8.78847 12.8831 8.86619 14.3598C8.90505 15.1274 8.95363 15.3314 9.26453 15.9532C9.72116 16.8956 10.411 17.5854 11.3534 18.0517C12.0043 18.3723 12.1695 18.4112 13.0147 18.4403C13.7823 18.4695 14.0543 18.4403 14.5692 18.2655C16.6775 17.5562 17.9502 15.5063 17.5908 13.4077C17.173 10.9108 14.8024 9.23976 12.3541 9.72554Z" fill="#805DE4"/>
<path d="M28.9284 0.0678215C28.8895 0.0969658 28.8604 10.6286 28.8604 23.4725C28.8604 44.6621 28.8701 46.8093 29.0158 46.8676C29.2781 46.9647 36.8173 46.9258 37.75 46.8287C41.6945 46.3818 45.1727 43.982 47.0672 40.4164C47.3101 39.9598 47.6307 39.1923 47.7958 38.7162C48.4079 36.8897 48.3885 37.3755 48.3885 23.4142C48.3885 12.2705 48.369 10.6092 48.233 9.89994C47.2712 4.83815 43.4142 1.01994 38.3427 0.145546C37.6626 0.0289574 36.6133 -0.00018692 33.2323 -0.00018692C30.9006 -0.00018692 28.9575 0.0289574 28.9284 0.0678215ZM39.3045 21.2283C40.8201 21.6266 42.0637 22.7827 42.5689 24.2595C42.8895 25.1728 42.8798 26.5135 42.5592 27.349C41.9665 28.8841 40.8007 29.9625 39.3045 30.3609C36.8756 30.9924 34.2913 29.5253 33.5821 27.1159C33.3683 26.3775 33.3781 25.1339 33.6209 24.3761C34.3496 21.9958 36.8756 20.5967 39.3045 21.2283Z" fill="#805DE4"/>
</g>
<defs>
<clipPath id="clip0">
<rect width="47.9999" height="48" fill="white" transform="matrix(1 0 0 -1 0.758789 48)"/>
</clipPath>
</defs>
</svg>
