<svg width="49" height="48" viewBox="0 0 49 48" fill="none" xmlns="http://www.w3.org/2000/svg">
<g clip-path="url(#clip0)">
<path d="M11.5184 0.155579C6.84524 0.991116 3.08533 4.44984 1.90003 8.99671C1.47255 10.6386 1.4434 11.6005 1.49198 24.3375C1.52112 36.035 1.53084 36.307 1.72515 37.2106C2.80357 42.0781 6.26231 45.5465 11.1784 46.6929C11.8196 46.8387 12.6357 46.8678 17.8918 46.897C23.3325 46.9358 23.896 46.9261 24.0417 46.7804C24.1875 46.6347 24.1972 44.7596 24.1972 23.502C24.1972 7.74341 24.168 0.320744 24.1 0.184727C24.0029 0.00984573 23.8377 0.000133514 18.1444 0.00984573C13.5198 0.0195618 12.1305 0.0487099 11.5184 0.155579ZM20.311 23.4728V43.1565L16.3567 43.1079C12.7134 43.0691 12.3248 43.0496 11.5961 42.865C8.46773 42.0586 6.14572 39.6492 5.49478 36.5111C5.28104 35.5298 5.28104 11.3576 5.48506 10.3957C6.06799 7.66568 7.96252 5.40196 10.5177 4.38183C11.8002 3.86691 12.3928 3.80862 16.5511 3.7989L20.311 3.78918V23.4728Z" fill="white"/>
<path d="M12.3541 9.72529C11.742 9.84188 10.8093 10.3082 10.3138 10.7454C9.29368 11.6295 8.78847 12.8828 8.86619 14.3596C8.90505 15.1271 8.95363 15.3311 9.26453 15.9529C9.72116 16.8953 10.411 17.5851 11.3534 18.0515C12.0043 18.3721 12.1695 18.411 13.0147 18.4401C13.7823 18.4693 14.0543 18.4401 14.5692 18.2652C16.6775 17.556 17.9502 15.506 17.5908 13.4075C17.173 10.9106 14.8024 9.23952 12.3541 9.72529Z" fill="white"/>
<path d="M28.9284 0.0679436C28.8895 0.0970879 28.8604 10.6287 28.8604 23.4727C28.8604 44.6622 28.8701 46.8094 29.0158 46.8677C29.2781 46.9648 36.8173 46.926 37.75 46.8288C41.6945 46.3819 45.1727 43.9822 47.0672 40.4166C47.3101 39.9599 47.6307 39.1924 47.7958 38.7163C48.4079 36.8898 48.3885 37.3756 48.3885 23.4144C48.3885 12.2707 48.369 10.6093 48.233 9.90006C47.2712 4.83827 43.4142 1.02007 38.3427 0.145668C37.6626 0.0290794 36.6133 -6.48499e-05 33.2323 -6.48499e-05C30.9006 -6.48499e-05 28.9575 0.0290794 28.9284 0.0679436ZM39.3045 21.2284C40.8201 21.6267 42.0637 22.7829 42.5689 24.2596C42.8895 25.1729 42.8798 26.5136 42.5592 27.3492C41.9665 28.8842 40.8007 29.9626 39.3045 30.361C36.8756 30.9925 34.2913 29.5254 33.5821 27.116C33.3683 26.3776 33.3781 25.134 33.6209 24.3762C34.3496 21.9959 36.8756 20.5969 39.3045 21.2284Z" fill="white"/>
</g>
<defs>
<clipPath id="clip0">
<rect width="47.9999" height="48" fill="white" transform="matrix(1 0 0 -1 0.758789 48)"/>
</clipPath>
</defs>
</svg>
