<svg width="49" height="49" viewBox="0 0 49 49" fill="none" xmlns="http://www.w3.org/2000/svg">
<g clip-path="url(#clip0)">
<path d="M21.9579 48.2967C18.2857 47.9465 14.5657 46.6251 11.3658 44.5343C8.68593 42.7831 8.08098 42.0667 8.08098 40.6286C8.08098 37.7471 11.249 32.6952 16.6618 26.9427C19.7397 23.6738 24.0222 19.8424 24.4839 19.9433C25.386 20.1449 32.5871 27.1815 35.2829 30.4876C39.5494 35.7306 41.5129 40.0183 40.5153 41.9287C39.7564 43.3828 35.06 46.2218 31.6107 47.3097C28.7663 48.2118 25.0304 48.5939 21.9579 48.2967ZM4.46714 37.6356C2.24365 34.2182 1.11864 30.8484 0.572056 25.9822C0.39163 24.3743 0.45531 23.4563 0.980669 20.1555C1.63339 16.0429 3.96832 11.2881 6.78084 8.35883C7.98015 7.11176 8.08628 7.07993 9.54561 7.57344C11.318 8.1731 13.2072 9.47853 16.1418 12.1372L17.8558 13.6867L16.9219 14.8383C12.5757 20.1768 7.99607 27.744 6.27141 32.4245C5.33213 34.9664 4.95535 37.5242 5.35866 38.5855C5.6293 39.3019 5.37989 39.0366 4.46714 37.6356ZM43.5241 38.2141C43.7417 37.1421 43.4658 35.1681 42.813 33.1781C41.4068 28.8691 36.6892 20.8454 32.3589 15.3955L30.9951 13.6814L32.4704 12.3229C34.3967 10.5505 35.734 9.48915 37.1774 8.59232C38.3183 7.88123 39.9421 7.25504 40.6426 7.25504C41.0725 7.25504 42.5902 8.83112 43.816 10.5558C45.7158 13.2197 47.1114 16.4568 47.8172 19.8212C48.2736 21.9969 48.3107 26.6509 47.8915 28.816C47.5466 30.5937 46.8143 32.9021 46.1032 34.4729C45.5672 35.6457 44.2405 37.9222 43.6568 38.6651C43.3596 39.0366 43.3596 39.0366 43.5241 38.2141ZM22.3506 6.43782C20.35 5.41894 17.2668 4.33108 15.5634 4.03391C14.9637 3.93308 13.9501 3.87471 13.2974 3.90655C11.8912 3.97553 11.9548 3.90655 14.2102 2.83991C16.0834 1.9537 17.6489 1.43364 19.7715 0.987885C22.1595 0.483753 26.6437 0.478446 28.9945 0.977272C31.5311 1.51324 34.5187 2.62764 36.2009 3.66244L36.6998 3.97023L35.5535 3.91185C33.2717 3.79511 29.9497 4.71846 26.3783 6.45905C25.3011 6.98441 24.3671 7.40363 24.2981 7.38771C24.2344 7.3771 23.3535 6.94726 22.3506 6.43782Z" fill="#805DE4"/>
</g>
<defs>
<clipPath id="clip0">
<rect width="48" height="49" fill="white" transform="translate(0.241699)"/>
</clipPath>
</defs>
</svg>
