<svg width="49" height="49" viewBox="0 0 49 49" fill="none" xmlns="http://www.w3.org/2000/svg">
<g clip-path="url(#clip0)">
<path d="M21.9579 48.2965C18.2857 47.9462 14.5657 46.6249 11.3658 44.5341C8.68593 42.7829 8.08098 42.0665 8.08098 40.6284C8.08098 37.7468 11.249 32.6949 16.6618 26.9425C19.7397 23.6736 24.0222 19.8422 24.4839 19.943C25.386 20.1447 32.5871 27.1813 35.2829 30.4873C39.5494 35.7303 41.5129 40.0181 40.5153 41.9285C39.7564 43.3825 35.06 46.2216 31.6107 47.3094C28.7663 48.2116 25.0304 48.5936 21.9579 48.2965ZM4.46714 37.6354C2.24365 34.2179 1.11864 30.8482 0.572056 25.982C0.39163 24.3741 0.45531 23.456 0.980669 20.1553C1.63339 16.0426 3.96832 11.2879 6.78084 8.35858C7.98015 7.11152 8.08628 7.07968 9.54561 7.5732C11.318 8.17285 13.2072 9.47829 16.1418 12.1369L17.8558 13.6865L16.9219 14.838C12.5757 20.1765 7.99607 27.7438 6.27141 32.4243C5.33213 34.9662 4.95535 37.524 5.35866 38.5853C5.6293 39.3017 5.37989 39.0364 4.46714 37.6354ZM43.5241 38.2138C43.7417 37.1419 43.4658 35.1678 42.813 33.1778C41.4068 28.8688 36.6892 20.8451 32.3589 15.3952L30.9951 13.6812L32.4704 12.3227C34.3967 10.5502 35.734 9.4889 37.1774 8.59208C38.3183 7.88099 39.9421 7.2548 40.6426 7.2548C41.0725 7.2548 42.5902 8.83088 43.816 10.5555C45.7158 13.2195 47.1114 16.4565 47.8172 19.821C48.2736 21.9967 48.3107 26.6506 47.8915 28.8157C47.5466 30.5935 46.8143 32.9019 46.1032 34.4726C45.5672 35.6454 44.2405 37.922 43.6568 38.6649C43.3596 39.0364 43.3596 39.0364 43.5241 38.2138ZM22.3506 6.43758C20.35 5.4187 17.2668 4.33083 15.5634 4.03366C14.9637 3.93283 13.9501 3.87446 13.2974 3.9063C11.8912 3.97529 11.9548 3.9063 14.2102 2.83966C16.0834 1.95345 17.6489 1.4334 19.7715 0.987641C22.1595 0.483508 26.6437 0.478202 28.9945 0.977027C31.5311 1.513 34.5187 2.6274 36.2009 3.6622L36.6998 3.96998L35.5535 3.91161C33.2717 3.79486 29.9497 4.71822 26.3783 6.4588C25.3011 6.98416 24.3671 7.40339 24.2981 7.38747C24.2344 7.37685 23.3535 6.94701 22.3506 6.43758Z" fill="white"/>
</g>
<defs>
<clipPath id="clip0">
<rect width="48" height="49" fill="white" transform="translate(0.241699)"/>
</clipPath>
</defs>
</svg>
