<svg width="48" height="48" viewBox="0 0 48 48" fill="none" xmlns="http://www.w3.org/2000/svg">
<path fill-rule="evenodd" clip-rule="evenodd" d="M34.0018 15.7495C35.1033 16.0518 35.9708 16.9424 36.2652 18.0734C36.8002 20.1232 36.8002 24.4002 36.8002 24.4002C36.8002 24.4002 36.8002 28.677 36.2652 30.727C35.9708 31.858 35.1033 32.7486 34.0018 33.051C32.0056 33.6002 24.0002 33.6002 24.0002 33.6002C24.0002 33.6002 15.9948 33.6002 13.9985 33.051C12.8969 32.7486 12.0294 31.858 11.735 30.727C11.2002 28.677 11.2002 24.4002 11.2002 24.4002C11.2002 24.4002 11.2002 20.1232 11.735 18.0734C12.0294 16.9424 12.8969 16.0518 13.9985 15.7495C15.9948 15.2002 24.0002 15.2002 24.0002 15.2002C24.0002 15.2002 32.0056 15.2002 34.0018 15.7495ZM21.6002 20.8003V28.8003L28.0002 24.8004L21.6002 20.8003Z" fill="#805DE4"/>
</svg>
